# AST/ASF file generated using VICON BodyLanguage
# -----------------------------------------------
:version 1.10
:name VICON
:units
  mass 1.0
  length 0.45
  angle deg
:documentation
   .ast/.asf automatically generated from VICON data using
   VICON BodyBuilder and BodyLanguage model FoxedUp or BRILLIANT.MOD
:root
   order TX TY TZ RX RY RZ
   axis XYZ
   position 0 0 0  
   orientation 0 0 0 
:bonedata
  begin
     id 1 
     name lhipjoint
     direction 0.535335 -0.74333 0.401095 
     length 2.04549 
     axis 0 0 0  XYZ
  end
  begin
     id 2 
     name lfemur
     direction 0.34202 -0.939693 0  
     length 6.95643  
     axis 0 0 20  XYZ
    dof rx ry rz
    limits (-160.0 20.0)
           (-70.0 70.0)
           (-60.0 70.0)
  end
  begin
     id 3 
     name ltibia
     direction 0.34192 -0.939729 0   
     length 5.55969   
     axis 0 0 20   XYZ
    dof rx
    limits (-10.0 170.0)
  end
  begin
     id 4 
     name lfoot
     direction 0.216943 -0.596046 0.773088   
     length 2.27918   
     axis -90 7.62852e-016 20   XYZ
    dof rx rz
    limits (-45.0 90.0)
           (-70.0 20.0)
  end
  begin
     id 5 
     name ltoes
     direction 1.53519e-011 -4.21748e-011 1   
     length 1.05562   
     axis -90 7.62852e-016 20   XYZ
    dof rx
    limits (-90.0 20.0)
  end
  begin
     id 6 
     name rhipjoint
     direction -0.576368 -0.719173 0.38806   
     length 2.1142  
     axis 0 0 0  XYZ 
  end
  begin
     id 7 
     name rfemur
     direction -0.34202 -0.939693 0   
     length 7.07928   
     axis 0 0 -20   XYZ
    dof rx ry rz
    limits (-160.0 20.0)
           (-70.0 70.0)
           (-70.0 60.0)
  end
  begin
     id 8 
     name rtibia
     direction -0.34202 -0.939693 0   
     length 5.79974   
     axis 0 0 -20   XYZ
    dof rx
    limits (-10.0 170.0)
 end
 begin
     id 9 
     name rfoot
     direction -0.189288 -0.520065 0.832888   
     length 2.42173  
     axis -90 -7.62852e-016 -20   XYZ
    dof rx rz
    limits (-45.0 90.0)
           (-20.0 70.0)
  end
  begin
     id 10 
     name rtoes
     direction -1.53574e-011 -4.21658e-011 1   
     length 1.14469   
     axis -90 -7.62852e-016 -20   XYZ
    dof rx
    limits (-90.0 20.0)
  end
  begin
     id 11 
     name lowerback
     direction -0.00135702 0.993803 0.111144   
     length 1.91308   
     axis 0 0 0   XYZ
    dof rx ry rz
    limits (-20.0 45.0)
           (-30.0 30.0)
           (-30.0 30.0)
  end
  begin
     id 12 
     name upperback
     direction -0.0056745 0.999813 0.0184631   
     length 1.9212   
     axis 0 0 0   XYZ
    dof rx ry rz
    limits (-20.0 45.0)
           (-30.0 30.0)
           (-30.0 30.0)
  end
  begin
     id 13 
     name thorax
     direction -0.00733434 0.999426 -0.0330788   
     length 1.94196   
     axis 0 0 0   XYZ
    dof rx ry rz
    limits (-20.0 45.0)
           (-30.0 30.0)
           (-30.0 30.0)
  end
  begin
     id 14 
     name lowerneck
     direction 0.0563074 0.996944 -0.0541571   
     length 2.34257   
     axis 0 0 0   XYZ
    dof rx ry rz
    limits (-20.0 45.0)
           (-30.0 30.0)
           (-30.0 30.0)
  end
  begin
     id 15 
     name upperneck
     direction -0.0544519 0.976166 -0.210085   
     length 2.32506   
     axis 0 0 0   XYZ
    dof rx ry rz
    limits (-20.0 45.0)
           (-30.0 30.0)
           (-30.0 30.0)
  end
  begin
     id 16
     name head
     direction -0.0226035 0.997615 -0.0652205  
     length 2.3648  
     axis 0 0 0   XYZ
    dof rx ry rz
    limits (-20.0 45.0)
           (-30.0 30.0)
           (-30.0 30.0)
  end
  begin
     id 17 
     name lclavicle
     direction 0.92109 0.381297 -0.0787716  
     length 4.0487  
     axis 0 0 0   XYZ
    dof ry rz
    limits (-20.0 10.0)
           (0.0 20.0)
  end
  begin
     id 18 
     name lhumerus
     direction 1 -4.48986e-011 3.56724e-027   
     length 4.94991   
     axis 180 -30 -90   XYZ
    dof rx ry rz
    limits (-60.0 90.0)
           (-90.0 90.0)
           (-90.0 90.0)
  end
  begin
     id 19
     name lradius
     direction 1 -4.48981e-011 8.62147e-027   
     length 2.7606   
     axis 180 -30 -90   XYZ
    dof rx
    limits (-10.0 170.0)
  end
  begin
     id 20
     name lwrist
     direction 1 -4.48989e-011 1.59799e-026   
     length 1.3803   
     axis -1.17785e-014 90 90   XYZ
    dof ry
    limits (-180.0 0.0)
 end
  begin
     id 21 
     name lhand
     direction 1 -4.48896e-011 3.19599e-026   
     length 0.843936   
     axis -2.03931e-014 90 90   XYZ
    dof rx rz
    limits (-90.0 90.0)
           (-45.0 45.0)
  end
  begin
     id 22 
     name lfingers
     direction 1 -4.48887e-011 6.39197e-026   
     length 0.680403   
     axis -4.07862e-014 90 90   XYZ
    dof rx
    limits (0.0 90.0)
  end
  begin
     id 23
     name lthumb
     direction 0.707107 -6.348e-011 0.707107   
     length 0.976926   
     axis -90 45 2.85299e-015   XYZ
    dof rx rz
    limits (-45.0 45.0)
           (-45.0 45.0)
  end
  begin
     id 24 
     name rclavicle
     direction -0.951104 0.307692 -0.026953   
     length 4.21801  
     axis 0 0 0   XYZ 
    dof ry rz
    limits (-10.0 20.0)
           (-20.0 0.0)
  end
  begin
     id 25 
     name rhumerus
     direction -1 -4.4896e-011 -1.8171e-018  
     length 4.32982   
     axis 180 30 90   XYZ
    dof rx ry rz
    limits (-90.0 60.0)
           (-90.0 90.0)
           (-90.0 90.0)
  end
  begin
     id 26 
     name rradius
     direction -1 -4.48959e-011 8.25165e-027   
     length 3.20057   
     axis 180 30 90   XYZ
    dof rx
    limits (-10.0 170.0)
  end
  begin
     id 27 
     name rwrist
     direction -1 -4.48997e-011 1.59799e-026   
     length 1.60029   
     axis -1.17785e-014 -90 -90   XYZ
    dof ry
    limits (-180.0 0.0)
  end
  begin
     id 28
     name rhand
     direction -1 -4.49023e-011 3.19599e-026   
     length 0.960433   
     axis -2.03931e-014 -90 -90   XYZ
    dof rx rz
    limits (-90.0 90.0)
           (-45.0 45.0)
  end
  begin
     id 29
     name rfingers
     direction -1 -4.48802e-011 6.39197e-026   
     length 0.774326   
     axis -4.07862e-014 -90 -90   XYZ
    dof rx
    limits (0.0 90.0)
  end
  begin
     id 30
     name rthumb
     direction -0.707107 -6.34876e-011 0.707107   
     length 1.11178   
     axis -90 -45 -2.85299e-015   XYZ
    dof rx rz
    limits (-45.0 45.0)
           (-45.0 45.0)
  end
:hierarchy
  begin
    root lhipjoint rhipjoint lowerback
    lhipjoint lfemur
    lfemur ltibia
    ltibia lfoot
    lfoot ltoes
    rhipjoint rfemur
    rfemur rtibia
    rtibia rfoot
    rfoot rtoes
    lowerback upperback
    upperback thorax
    thorax lowerneck lclavicle rclavicle
    lowerneck upperneck
    upperneck head
    lclavicle lhumerus
    lhumerus lradius
    lradius lwrist
    lwrist lhand lthumb
    lhand lfingers
    rclavicle rhumerus
    rhumerus rradius
    rradius rwrist
    rwrist rhand rthumb
    rhand rfingers
end

#!OML:ASF C:\KaitlinTest1\Natural Motions\Nikki\Session 2\Nikki.ASF
:FULLY-SPECIFIED
:DEGREES
237
root -11.8548 22.5395 4.8451 3.02172 87.2629 -11.0645
lowerback -3.82002 -3.25687 -0.0613998
upperback -7.20175 -4.15547 -0.0497918
thorax -5.32074 -1.98492 0.0115113
lowerneck 5.53645 -6.28256 -14.6955
upperneck 11.2339 46.5381 8.20059
head 172.138 59.6902 -32.3105
rclavicle 1.89964e-014 3.97569e-015
rhumerus -44.7809 10.1285 -42.3835
rradius 92.0413
rwrist -12.1998
rhand -52.7804 13.1886
rfingers 7.12502
rthumb -25.2553 -15.1598
lclavicle 1.89964e-014 3.97569e-015
lhumerus -34.0625 10.136 -1.79269
lradius 79.0651
lwrist 22.3642
lhand -54.0179 7.78299
lfingers 7.12502
lthumb -26.4405 35.9588
rfemur -17.8943 -21.2673 22.919
rtibia 22.5274
rfoot 14.9262 8.12793
rtoes -1.145e-013
lfemur -18.7975 16.6843 -18.2373
ltibia 17.4084
lfoot 25.5696 -4.56626
ltoes -1.01778e-013
238
root -11.8071 22.6908 4.82734 1.52316 86.9813 -13.0525
lowerback -4.82523 -3.07991 0.40524
upperback -7.39797 -3.89627 0.0241326
thorax -4.98832 -1.87098 -0.223183
lowerneck 6.13056 -6.10953 -15.0437
upperneck 11.6614 47.0601 8.47992
head 172.517 59.3148 -32.0463
rclavicle 2.52332e-014 4.37326e-015
rhumerus -47.533 9.06246 -42.6573
rradius 89.0448
rwrist -12.1684
rhand -52.3407 13.607
rfingers 7.12502
rthumb -24.8341 -14.8002
lclavicle 2.52332e-014 4.37326e-015
lhumerus -36.9304 8.89392 -1.09448
lradius 77.7101
lwrist 24.0147
lhand -53.2224 6.49678
lfingers 7.12502
lthumb -25.6788 34.7848
rfemur -18.862 -22.5355 23.5792
rtibia 23.0332
rfoot 14.7144 7.20685
rtoes 6.99722e-014
lfemur -18.4299 13.8712 -17.6741
ltibia 16.5943
lfoot 26.541 -1.59034
ltoes 9.85972e-014
239
root -11.7973 22.8162 4.81966 4.12952 87.0162 -10.5835
lowerback -5.03141 -3.04244 0.374004
upperback -7.46234 -3.83742 0.0947181
thorax -4.93284 -1.83576 -0.142412
lowerneck 6.30754 -6.00889 -15.3183
upperneck 11.9329 47.5579 8.66066
head 172.798 58.8028 -31.8929
rclavicle -2.68856e-014 2.18663e-015
rhumerus -49.9083 8.15338 -42.9597
rradius 86.4657
rwrist -13.9143
rhand -52.0539 14.1108
rfingers 7.12502
rthumb -24.5592 -14.334
lclavicle -2.68856e-014 2.18663e-015
lhumerus -39.4613 7.97706 -0.430976
lradius 76.0762
lwrist 24.9457
lhand -52.5426 6.09827
lfingers 7.12502
lthumb -25.0275 34.4787
rfemur -19.5098 -22.1374 23.6273
rtibia 23.7363
rfoot 14.9961 5.54917
rtoes 1.84472e-013
lfemur -17.8269 9.97372 -17.0344
ltibia 15.5668
lfoot 28.1771 1.06306
ltoes 1.62208e-013
240
root -11.7919 22.9162 4.80911 7.76836 86.9007 -7.1608
lowerback -5.26838 -2.9468 0.316099
upperback -7.52942 -3.70203 0.0968319
thorax -4.86566 -1.76269 -0.118151
lowerneck 6.34724 -5.91814 -15.4949
upperneck 12.2356 48.2065 8.96047
head 173.336 58.1145 -31.6577
rclavicle -1.54058e-014 -1.64991e-014
rhumerus -52.2246 6.92767 -42.8661
rradius 82.8954
rwrist -13.7482
rhand -51.7438 18.148
rfingers 7.12502
rthumb -24.2619 -10.3369
lclavicle -1.54058e-014 -1.64991e-014
lhumerus -41.7954 6.96984 0.333543
lradius 73.6761
lwrist 23.8433
lhand -52.8947 4.14597
lfingers 7.12502
lthumb -25.3649 32.4789
rfemur -20.4076 -21.7574 23.5953
rtibia 24.4843
rfoot 15.5738 5.44593
rtoes 6.67916e-014
lfemur -17.393 6.69368 -16.5496
ltibia 14.55
lfoot 29.5473 2.24138
ltoes 1.62208e-013
